<svg width="101" height="21" viewBox="0 0 101 21" fill="none" xmlns="http://www.w3.org/2000/svg">
<path d="M84.8514 14.9025V14.3877L84.1871 14.773L84.6289 15.5435L85.2964 15.1582L84.8514 14.9025V14.9025Z" fill="#F9E757"/>
<path d="M85.2964 15.1582L84.6289 15.5435L84.1871 14.773L84.8514 14.3877V14.9025L85.2964 15.1582Z" fill="#F9E757"/>
<path d="M100.591 5.55675L92.6099 0.950254C92.4737 0.870545 92.3043 0.870545 92.1648 0.950254L84.1873 5.55675C84.0478 5.63646 83.9648 5.7826 83.9648 5.94201V15.1583C83.9648 15.3178 84.0478 15.4639 84.1873 15.5436L92.1648 20.1501C92.2346 20.19 92.311 20.2099 92.3873 20.2099C92.4637 20.2099 92.5434 20.19 92.6099 20.1501L100.591 15.5436C100.73 15.4639 100.813 15.3178 100.813 15.1583V5.94201C100.813 5.7826 100.73 5.63646 100.591 5.55675ZM85.2966 15.1583L92.3873 11.0633L99.4781 15.1583L92.3873 19.2534L85.2966 15.1583L84.629 15.5436L84.1873 14.7731L84.8515 14.3878V6.20107L92.3873 1.8503L99.4781 5.94201L84.8515 14.3878V14.9026L85.2966 15.1583V15.1583Z" fill="#F9E757"/>
<path d="M4.53363 5.66736V14.1196H2.7979V5.66736H4.53363ZM7.13432 5.66736V7.03156H0.237851L0.237851 5.66736H7.13432ZM9.28802 9.20848V14.1196H7.61615V7.83847H9.18933L9.28802 9.20848ZM11.1805 7.79783L11.1515 9.3478C11.0702 9.33619 10.9715 9.32651 10.8554 9.31877C10.7432 9.30716 10.6406 9.30136 10.5477 9.30136C10.3117 9.30136 10.1065 9.33232 9.93239 9.39424C9.7621 9.45229 9.61891 9.53937 9.50281 9.65547C9.39057 9.77157 9.30543 9.91283 9.24738 10.0792C9.1932 10.2457 9.16224 10.4353 9.1545 10.6481L8.8178 10.5437C8.8178 10.1373 8.85844 9.76383 8.93971 9.42326C9.02098 9.07883 9.13902 8.7789 9.29382 8.52347C9.4525 8.26805 9.646 8.07067 9.87433 7.93135C10.1027 7.79203 10.3639 7.72237 10.658 7.72237C10.7509 7.72237 10.8457 7.73011 10.9425 7.74559C11.0392 7.7572 11.1186 7.77461 11.1805 7.79783ZM13.7347 7.83847V14.1196H12.0571V7.83847H13.7347ZM11.9526 6.20143C11.9526 5.95761 12.0377 5.75637 12.208 5.5977C12.3783 5.43902 12.6066 5.35969 12.893 5.35969C13.1755 5.35969 13.4019 5.43902 13.5722 5.5977C13.7463 5.75637 13.8334 5.95761 13.8334 6.20143C13.8334 6.44524 13.7463 6.64649 13.5722 6.80516C13.4019 6.96383 13.1755 7.04317 12.893 7.04317C12.6066 7.04317 12.3783 6.96383 12.208 6.80516C12.0377 6.64649 11.9526 6.44524 11.9526 6.20143ZM16.8811 5.20295V14.1196H15.2034V5.20295H16.8811ZM19.894 5.20295V14.1196H18.2221V5.20295H19.894ZM19.6559 10.7584H19.1973C19.2012 10.3211 19.2593 9.91863 19.3715 9.55098C19.4837 9.17945 19.6443 8.85823 19.8533 8.58733C20.0623 8.31255 20.3119 8.0997 20.6022 7.94877C20.8963 7.79783 21.2214 7.72237 21.5774 7.72237C21.887 7.72237 22.1676 7.76687 22.4192 7.85588C22.6746 7.94103 22.8933 8.08035 23.0752 8.27385C23.2609 8.46349 23.4041 8.71311 23.5047 9.02271C23.6054 9.33232 23.6557 9.70771 23.6557 10.1489V14.1196H21.9722V10.1373C21.9722 9.85865 21.9315 9.63999 21.8503 9.48132C21.7729 9.31877 21.6587 9.20461 21.5078 9.13881C21.3607 9.06915 21.1788 9.03432 20.9621 9.03432C20.7222 9.03432 20.517 9.07883 20.3468 9.16784C20.1803 9.25685 20.0468 9.38069 19.9462 9.53937C19.8456 9.69417 19.772 9.87606 19.7256 10.085C19.6792 10.294 19.6559 10.5185 19.6559 10.7584ZM28.3172 12.7032V9.90509C28.3172 9.70384 28.2843 9.53163 28.2185 9.38843C28.1527 9.24137 28.0501 9.1272 27.9108 9.04593C27.7754 8.96466 27.5993 8.92402 27.3825 8.92402C27.1968 8.92402 27.0362 8.95692 26.9007 9.02271C26.7653 9.08463 26.6608 9.17558 26.5872 9.29555C26.5137 9.41165 26.4769 9.54904 26.4769 9.70771H24.8051C24.8051 9.44068 24.867 9.18719 24.9908 8.94725C25.1147 8.7073 25.2946 8.49638 25.5307 8.31449C25.7668 8.12872 26.0474 7.9836 26.3725 7.87911C26.7014 7.77461 27.0691 7.72237 27.4754 7.72237C27.9631 7.72237 28.3965 7.80364 28.7758 7.96618C29.155 8.12872 29.453 8.37254 29.6698 8.69763C29.8904 9.02271 30.0007 9.42907 30.0007 9.9167V12.6045C30.0007 12.9489 30.0219 13.2314 30.0645 13.452C30.1071 13.6687 30.169 13.8584 30.2503 14.0209V14.1196H28.561C28.4797 13.9493 28.4178 13.7365 28.3752 13.481C28.3365 13.2217 28.3172 12.9624 28.3172 12.7032ZM28.5378 10.294L28.5494 11.2403H27.6147C27.3942 11.2403 27.2026 11.2654 27.04 11.3157C26.8775 11.366 26.744 11.4376 26.6395 11.5305C26.535 11.6195 26.4576 11.724 26.4073 11.844C26.3608 11.964 26.3376 12.0956 26.3376 12.2387C26.3376 12.3819 26.3705 12.5116 26.4363 12.6277C26.5021 12.7399 26.5969 12.8289 26.7208 12.8947C26.8446 12.9566 26.9897 12.9876 27.1561 12.9876C27.4077 12.9876 27.6264 12.9373 27.8121 12.8367C27.9979 12.736 28.1411 12.6122 28.2417 12.4651C28.3462 12.3181 28.4004 12.1788 28.4042 12.0472L28.8454 12.7554C28.7835 12.9141 28.6984 13.0785 28.59 13.2488C28.4855 13.4191 28.352 13.5797 28.1895 13.7307C28.0269 13.8777 27.8315 13.9996 27.6031 14.0964C27.3748 14.1893 27.1039 14.2357 26.7904 14.2357C26.3918 14.2357 26.03 14.1564 25.7049 13.9977C25.3837 13.8351 25.1282 13.6126 24.9386 13.3301C24.7528 13.0437 24.6599 12.7186 24.6599 12.3548C24.6599 12.0259 24.7219 11.7337 24.8457 11.4783C24.9696 11.2228 25.1514 11.0081 25.3914 10.8339C25.6352 10.6559 25.939 10.5224 26.3028 10.4334C26.6666 10.3405 27.0884 10.294 27.5683 10.294H28.5378ZM40.0261 12.7612V14.1196H35.5271V12.7612H40.0261ZM36.096 5.66736V14.1196H34.3545V5.66736H36.096ZM39.4398 9.10979V10.4334H35.5271V9.10979H39.4398ZM40.0203 5.66736V7.03156H35.5271V5.66736H40.0203ZM42.2843 7.83847L43.3234 9.74835L44.3915 7.83847H46.1737L44.3973 10.9094L46.255 14.1196H44.467L43.335 12.0994L42.203 14.1196H40.415L42.2727 10.9094L40.4963 7.83847H42.2843ZM48.6583 9.04593V16.5345H46.9864V7.83847H48.5364L48.6583 9.04593ZM52.6348 10.9094V11.0313C52.6348 11.4879 52.5806 11.9117 52.4722 12.3026C52.3677 12.6935 52.2129 13.034 52.0078 13.3243C51.8027 13.6107 51.5473 13.8351 51.2415 13.9977C50.9397 14.1564 50.5914 14.2357 50.1966 14.2357C49.8135 14.2357 49.4807 14.1583 49.1981 14.0035C48.9156 13.8487 48.6776 13.632 48.4841 13.3533C48.2945 13.0708 48.1416 12.7438 48.0255 12.3723C47.9094 12.0007 47.8204 11.6021 47.7585 11.1764V10.8571C47.8204 10.4005 47.9094 9.98249 48.0255 9.60322C48.1416 9.22009 48.2945 8.88919 48.4841 8.61055C48.6776 8.32803 48.9137 8.10937 49.1923 7.95457C49.4749 7.79977 49.8058 7.72237 50.185 7.72237C50.5836 7.72237 50.9339 7.79783 51.2357 7.94877C51.5415 8.0997 51.7969 8.31642 52.002 8.59894C52.211 8.88145 52.3677 9.21815 52.4722 9.60903C52.5806 9.99991 52.6348 10.4334 52.6348 10.9094ZM50.9571 11.0313V10.9094C50.9571 10.6423 50.9339 10.3966 50.8874 10.1721C50.8449 9.94379 50.7752 9.74448 50.6785 9.5742C50.5856 9.40391 50.4617 9.27233 50.3069 9.17945C50.156 9.0827 49.9722 9.03432 49.7554 9.03432C49.5271 9.03432 49.3317 9.07109 49.1691 9.14462C49.0105 9.21815 48.8808 9.32458 48.7802 9.4639C48.6796 9.60322 48.6041 9.76964 48.5538 9.96314C48.5035 10.1566 48.4725 10.3753 48.4609 10.6191V11.426C48.4802 11.7124 48.5344 11.9698 48.6234 12.1981C48.7125 12.4226 48.8498 12.6006 49.0356 12.7322C49.2214 12.8638 49.4652 12.9296 49.767 12.9296C49.9876 12.9296 50.1734 12.8812 50.3243 12.7844C50.4753 12.6838 50.5972 12.5464 50.6901 12.3723C50.7868 12.1981 50.8545 11.9969 50.8932 11.7685C50.9358 11.5402 50.9571 11.2944 50.9571 11.0313ZM55.4386 5.20295V14.1196H53.761V5.20295H55.4386ZM56.5532 11.0429V10.921C56.5532 10.4604 56.619 10.0367 56.7506 9.64966C56.8822 9.25879 57.0737 8.92015 57.3253 8.63377C57.5769 8.34738 57.8865 8.12485 58.2541 7.96618C58.6218 7.80364 59.0436 7.72237 59.5196 7.72237C59.9957 7.72237 60.4194 7.80364 60.791 7.96618C61.1625 8.12485 61.474 8.34738 61.7256 8.63377C61.981 8.92015 62.1745 9.25879 62.3061 9.64966C62.4377 10.0367 62.5035 10.4604 62.5035 10.921V11.0429C62.5035 11.4996 62.4377 11.9233 62.3061 12.3142C62.1745 12.7012 61.981 13.0398 61.7256 13.3301C61.474 13.6165 61.1644 13.839 60.7968 13.9977C60.4291 14.1564 60.0073 14.2357 59.5312 14.2357C59.0552 14.2357 58.6315 14.1564 58.2599 13.9977C57.8923 13.839 57.5807 13.6165 57.3253 13.3301C57.0737 13.0398 56.8822 12.7012 56.7506 12.3142C56.619 11.9233 56.5532 11.4996 56.5532 11.0429ZM58.2251 10.921V11.0429C58.2251 11.3061 58.2483 11.5518 58.2948 11.7801C58.3412 12.0085 58.4147 12.2097 58.5154 12.3839C58.6198 12.5542 58.7553 12.6877 58.9217 12.7844C59.0881 12.8812 59.2913 12.9296 59.5312 12.9296C59.7635 12.9296 59.9628 12.8812 60.1292 12.7844C60.2956 12.6877 60.4291 12.5542 60.5297 12.3839C60.6303 12.2097 60.7039 12.0085 60.7503 11.7801C60.8006 11.5518 60.8258 11.3061 60.8258 11.0429V10.921C60.8258 10.6656 60.8006 10.4256 60.7503 10.2011C60.7039 9.97281 60.6284 9.77157 60.5239 9.59742C60.4233 9.41939 60.2898 9.28007 60.1234 9.17945C59.957 9.07883 59.7557 9.02852 59.5196 9.02852C59.2836 9.02852 59.0823 9.07883 58.9159 9.17945C58.7534 9.28007 58.6198 9.41939 58.5154 9.59742C58.4147 9.77157 58.3412 9.97281 58.2948 10.2011C58.2483 10.4256 58.2251 10.6656 58.2251 10.921ZM65.2028 9.20848V14.1196L63.531 14.1196V7.83847H65.1041L65.2028 9.20848ZM67.0953 7.79783L67.0663 9.3478C66.985 9.33619 66.8863 9.32651 66.7702 9.31877C66.658 9.30716 66.5554 9.30136 66.4625 9.30136C66.2265 9.30136 66.0214 9.33232 65.8472 9.39424C65.6769 9.45229 65.5337 9.53937 65.4176 9.65547C65.3054 9.77157 65.2203 9.91283 65.1622 10.0792C65.108 10.2457 65.0771 10.4353 65.0693 10.6481L64.7326 10.5437C64.7326 10.1373 64.7733 9.76383 64.8545 9.42326C64.9358 9.07883 65.0538 8.7789 65.2086 8.52347C65.3673 8.26805 65.5608 8.07067 65.7892 7.93135C66.0175 7.79203 66.2787 7.72237 66.5728 7.72237C66.6657 7.72237 66.7605 7.73011 66.8573 7.74559C66.954 7.7572 67.0334 7.77461 67.0953 7.79783ZM70.6596 14.2357C70.172 14.2357 69.7347 14.1583 69.3477 14.0035C68.9607 13.8448 68.6317 13.6262 68.3608 13.3475C68.0938 13.0689 67.8887 12.7457 67.7455 12.3781C67.6023 12.0065 67.5307 11.6118 67.5307 11.1938V10.9616C67.5307 10.4856 67.5984 10.0502 67.7339 9.65547C67.8693 9.26072 68.0628 8.91822 68.3144 8.62796C68.5698 8.33771 68.8794 8.11518 69.2432 7.96038C69.607 7.8017 70.0172 7.72237 70.4739 7.72237C70.9189 7.72237 71.3137 7.7959 71.6581 7.94296C72.0026 8.09002 72.2909 8.29901 72.5231 8.56991C72.7592 8.84082 72.9372 9.1659 73.0572 9.54517C73.1771 9.92057 73.2371 10.3385 73.2371 10.7991V11.4957H68.2447V10.3811H71.5943V10.2534C71.5943 10.0212 71.5517 9.81414 71.4666 9.63225C71.3853 9.44648 71.2614 9.29942 71.095 9.19106C70.9286 9.0827 70.7158 9.02852 70.4565 9.02852C70.2359 9.02852 70.0462 9.07689 69.8876 9.17364C69.7289 9.2704 69.5992 9.40585 69.4986 9.58C69.4019 9.75416 69.3283 9.95927 69.278 10.1953C69.2316 10.4275 69.2084 10.683 69.2084 10.9616V11.1938C69.2084 11.4454 69.2432 11.6776 69.3129 11.8904C69.3864 12.1033 69.4889 12.2871 69.6205 12.4419C69.756 12.5967 69.9185 12.7167 70.1082 12.8018C70.3017 12.887 70.5203 12.9296 70.7641 12.9296C71.066 12.9296 71.3466 12.8715 71.6059 12.7554C71.869 12.6354 72.0954 12.4555 72.2851 12.2155L73.0978 13.0979C72.9662 13.2875 72.7862 13.4694 72.5579 13.6436C72.3334 13.8177 72.0625 13.9609 71.7452 14.0732C71.4279 14.1815 71.066 14.2357 70.6596 14.2357ZM75.861 9.20848V14.1196H74.1891V7.83847H75.7623L75.861 9.20848ZM77.7535 7.79783L77.7245 9.3478C77.6432 9.33619 77.5445 9.32651 77.4284 9.31877C77.3162 9.30716 77.2136 9.30136 77.1207 9.30136C76.8847 9.30136 76.6795 9.33232 76.5054 9.39424C76.3351 9.45229 76.1919 9.53937 76.0758 9.65547C75.9636 9.77157 75.8784 9.91283 75.8204 10.0792C75.7662 10.2457 75.7352 10.4353 75.7275 10.6481L75.3908 10.5437C75.3908 10.1373 75.4314 9.76383 75.5127 9.42326C75.594 9.07883 75.712 8.7789 75.8668 8.52347C76.0255 8.26805 76.219 8.07067 76.4473 7.93135C76.6757 7.79203 76.9369 7.72237 77.231 7.72237C77.3239 7.72237 77.4187 7.73011 77.5155 7.74559C77.6122 7.7572 77.6916 7.77461 77.7535 7.79783Z" fill="#F9E757"/>
</svg>
