<svg width="19" height="19" viewBox="0 0 19 19" fill="none" xmlns="http://www.w3.org/2000/svg">
<path d="M18.0418 0.946333C17.9164 0.801545 17.7183 0.735732 17.5005 0.781801L1.95164 4.94116C1.77011 4.9971 1.63149 5.1386 1.58198 5.32287C1.53578 5.50386 1.5919 5.69801 1.72393 5.82963L3.95507 8.0541L0.657837 8.93928C0.476308 8.99193 0.33769 9.13672 0.291482 9.32099C0.245275 9.50198 0.301381 9.69612 0.433403 9.82775L9.08082 18.4426C9.18314 18.5446 9.32175 18.6006 9.46037 18.6006C9.50328 18.6006 9.5495 18.594 9.5924 18.5841C9.77393 18.5381 9.91915 18.3966 9.97856 18.2024L10.8532 14.9315L13.0976 17.1724C13.1999 17.2712 13.3352 17.3271 13.4738 17.3271C13.5168 17.3271 13.563 17.3205 13.6059 17.3106C13.7907 17.2646 13.9326 17.1264 13.992 16.9322L18.154 1.43993C18.2035 1.26881 18.1606 1.08125 18.0418 0.946333V0.946333ZM9.27885 17.3929L1.48628 9.63031L4.67789 8.77475L10.1304 14.2109L9.27885 17.3929V17.3929ZM13.2956 16.1194L11.1173 13.9476L13.1339 6.44169C13.1933 6.25412 13.1405 6.0501 13.0019 5.9119C12.8632 5.77369 12.6619 5.72104 12.4837 5.77369L4.94195 7.79085L2.77678 5.63219L17.144 1.78873L13.2956 16.1194Z" fill="#F9E757"/>
</svg>
